<svg width="20" height="20" viewBox="0 0 20 20" fill="none" xmlns="http://www.w3.org/2000/svg">
<g clip-path="url(#clip0_2_36)">
<path d="M6.60611 11.3206C3.26003 11.6231 0.710788 14.4504 0.75521 17.8098V17.9802C0.75521 18.6306 1.2825 19.1579 1.93293 19.1579C2.58336 19.1579 3.11064 18.6306 3.11064 17.9802V17.7627C3.07524 15.7001 4.59744 13.9411 6.6438 13.68C8.80391 13.4658 10.7287 15.0433 10.9429 17.2034C10.9556 17.3311 10.962 17.4593 10.9621 17.5876V17.9802C10.9621 18.6307 11.4894 19.158 12.1398 19.158C12.7902 19.158 13.3175 18.6307 13.3175 17.9802V17.5876C13.3137 14.1147 10.4952 11.3025 7.02236 11.3064C6.88346 11.3065 6.74464 11.3113 6.60611 11.3206Z" fill="white"/>
<path d="M7.03637 9.73677C9.63809 9.73677 11.7472 7.62762 11.7472 5.0259C11.7472 2.42418 9.63809 0.315033 7.03637 0.315033C4.43464 0.315033 2.3255 2.42418 2.3255 5.0259C2.32811 7.62656 4.43571 9.73415 7.03637 9.73677ZM7.03637 2.67047C8.33723 2.67047 9.3918 3.72504 9.3918 5.0259C9.3918 6.32676 8.33723 7.38133 7.03637 7.38133C5.73551 7.38133 4.68093 6.32676 4.68093 5.0259C4.68093 3.72504 5.73551 2.67047 7.03637 2.67047Z" fill="white"/>
<path d="M18.421 8.16663H17.2433V6.98892C17.2433 6.33849 16.716 5.8112 16.0656 5.8112C15.4152 5.8112 14.8879 6.33849 14.8879 6.98892V8.16663H13.7102C13.0598 8.16663 12.5325 8.69392 12.5325 9.34435C12.5325 9.99478 13.0598 10.5221 13.7102 10.5221H14.8879V11.6998C14.8879 12.3502 15.4152 12.8775 16.0656 12.8775C16.716 12.8775 17.2433 12.3502 17.2433 11.6998V10.5221H18.421C19.0715 10.5221 19.5988 9.99478 19.5988 9.34435C19.5988 8.69392 19.0715 8.16663 18.421 8.16663Z" fill="white"/>
</g>
<defs>
<clipPath id="clip0_2_36">
<rect width="18.8441" height="18.8441" fill="white" transform="translate(0.754639 0.314606)"/>
</clipPath>
</defs>
</svg>
