<svg width="20" height="19" viewBox="0 0 20 19" fill="none" xmlns="http://www.w3.org/2000/svg">
<g clip-path="url(#clip0_13_476)">
<path d="M18.5403 10.3912L17.1647 5.44936C16.7209 3.857 15.7578 2.45859 14.4282 1.47632C13.0987 0.494047 11.479 -0.015752 9.82657 0.0279189C8.17411 0.0715899 6.58363 0.666226 5.30784 1.71735C4.03204 2.76848 3.14409 4.21581 2.78507 5.82938L1.72195 10.6103C1.5817 11.2415 1.58498 11.8961 1.73155 12.5259C1.87812 13.1556 2.16424 13.7445 2.56879 14.2489C2.97333 14.7533 3.48599 15.1604 4.06891 15.4402C4.65183 15.72 5.29015 15.8653 5.93674 15.8654H6.25081C6.50068 16.7295 7.02454 17.489 7.74351 18.0295C8.46248 18.5701 9.33762 18.8623 10.2371 18.8623C11.1366 18.8623 12.0117 18.5701 12.7307 18.0295C13.4497 17.489 13.9736 16.7295 14.2234 15.8654H14.375C15.0407 15.8655 15.6975 15.7116 16.294 15.4159C16.8904 15.1201 17.4104 14.6904 17.8133 14.1604C18.2162 13.6304 18.4911 13.0144 18.6166 12.3605C18.742 11.7067 18.7145 11.0327 18.5364 10.3912H18.5403ZM15.9422 12.7342C15.7599 12.9762 15.5237 13.1723 15.2523 13.307C14.9809 13.4416 14.6818 13.5111 14.3789 13.5099H5.93674C5.64286 13.5098 5.35274 13.4438 5.08779 13.3166C4.82285 13.1895 4.58984 13.0044 4.40595 12.7752C4.22207 12.5459 4.09201 12.2783 4.02537 11.9921C3.95873 11.7059 3.95722 11.4083 4.02093 11.1214L5.08405 6.33189C5.32817 5.22957 5.93403 4.24059 6.80517 3.52239C7.67632 2.80419 8.76268 2.39804 9.89133 2.36861C11.02 2.33917 12.126 2.68814 13.0334 3.35996C13.9408 4.03178 14.5974 4.98783 14.8987 6.07593L16.2711 11.0178C16.3539 11.3097 16.3673 11.617 16.3102 11.915C16.2531 12.213 16.127 12.4935 15.9422 12.7342V12.7342Z" fill="#5A45AA"/>
</g>
<defs>
<clipPath id="clip0_13_476">
<rect width="18.8441" height="18.8441" fill="white" transform="translate(0.83313 0.019104)"/>
</clipPath>
</defs>
</svg>
