<svg width="20" height="20" viewBox="0 0 20 20" fill="none" xmlns="http://www.w3.org/2000/svg">
<g clip-path="url(#clip0_2_46)">
<path d="M18.4209 16.849H5.07307C4.55247 16.849 4.05319 16.6422 3.68507 16.274C3.31695 15.9059 3.11015 15.4066 3.11015 14.886V1.53817C3.11015 1.22581 2.98606 0.92624 2.76519 0.705369C2.54432 0.484497 2.24475 0.360413 1.93239 0.360413C1.62003 0.360413 1.32047 0.484497 1.09959 0.705369C0.878723 0.92624 0.754639 1.22581 0.754639 1.53817L0.754639 14.886C0.755886 16.031 1.21126 17.1287 2.02085 17.9383C2.83045 18.7478 3.92813 19.2032 5.07307 19.2045H18.4209C18.7333 19.2045 19.0329 19.0804 19.2537 18.8595C19.4746 18.6386 19.5987 18.3391 19.5987 18.0267C19.5987 17.7144 19.4746 17.4148 19.2537 17.1939C19.0329 16.973 18.7333 16.849 18.4209 16.849Z" fill="white"/>
<path d="M18.4209 3.48227H15.9978C15.8426 3.4823 15.6908 3.52837 15.5617 3.61465C15.4326 3.70093 15.332 3.82354 15.2726 3.96699C15.2132 4.11044 15.1976 4.26829 15.2279 4.42057C15.2582 4.57286 15.3329 4.71275 15.4427 4.82255L16.0182 5.3973L13.2018 8.21213C13.1654 8.24869 13.1221 8.27769 13.0744 8.29749C13.0267 8.31728 12.9755 8.32746 12.9239 8.32746C12.8723 8.32746 12.8211 8.31728 12.7734 8.29749C12.7257 8.27769 12.6824 8.24869 12.646 8.21213L12.5125 8.07865C11.9891 7.57863 11.293 7.29961 10.5692 7.29961C9.84532 7.29961 9.14931 7.57863 8.62589 8.07865L5.4067 11.2978C5.29422 11.4065 5.20449 11.5364 5.14277 11.6801C5.08104 11.8238 5.04855 11.9784 5.04719 12.1348C5.04584 12.2911 5.07563 12.4462 5.13485 12.591C5.19407 12.7357 5.28152 12.8672 5.3921 12.9778C5.50269 13.0884 5.63419 13.1758 5.77893 13.235C5.92367 13.2943 6.07875 13.3241 6.23514 13.3227C6.39152 13.3213 6.54606 13.2888 6.68975 13.2271C6.83344 13.1654 6.9634 13.0757 7.07204 12.9632L10.2912 9.74399C10.3277 9.70743 10.371 9.67843 10.4187 9.65863C10.4664 9.63884 10.5175 9.62866 10.5692 9.62866C10.6208 9.62866 10.672 9.63884 10.7196 9.65863C10.7673 9.67843 10.8107 9.70743 10.8471 9.74399L10.9806 9.87747C11.5042 10.3771 12.2001 10.6559 12.9239 10.6559C13.6477 10.6559 14.3436 10.3771 14.8672 9.87747L17.6828 7.06264L18.2575 7.63817C18.3673 7.74821 18.5073 7.8232 18.6597 7.85364C18.8121 7.88408 18.9701 7.86859 19.1137 7.80915C19.2574 7.7497 19.3801 7.64897 19.4664 7.51971C19.5527 7.39045 19.5987 7.23848 19.5986 7.08305V4.66002C19.5986 4.34766 19.4745 4.0481 19.2537 3.82723C19.0328 3.60635 18.7332 3.48227 18.4209 3.48227Z" fill="white"/>
</g>
<defs>
<clipPath id="clip0_2_46">
<rect width="18.8441" height="18.8441" fill="white" transform="translate(0.754639 0.360413)"/>
</clipPath>
</defs>
</svg>
