<svg width="20" height="20" viewBox="0 0 20 20" fill="none" xmlns="http://www.w3.org/2000/svg">
<g clip-path="url(#clip0_1_20)">
<path d="M15.2803 2.06817H14.8877V1.67559C14.8877 1.36323 14.7636 1.06366 14.5427 0.842789C14.3219 0.621918 14.0223 0.497833 13.7099 0.497833V0.497833C13.3976 0.497833 13.098 0.621918 12.8771 0.842789C12.6563 1.06366 12.5322 1.36323 12.5322 1.67559V2.06817H7.82116V1.67559C7.82116 1.36323 7.69708 1.06366 7.4762 0.842789C7.25533 0.621918 6.95577 0.497833 6.64341 0.497833V0.497833C6.33105 0.497833 6.03148 0.621918 5.81061 0.842789C5.58974 1.06366 5.46565 1.36323 5.46565 1.67559V2.06817H5.07307C3.92775 2.06817 2.82934 2.52315 2.01948 3.33301C1.20961 4.14287 0.754639 5.24128 0.754639 6.3866L0.754639 15.0235C0.754639 16.1688 1.20961 17.2672 2.01948 18.0771C2.82934 18.8869 3.92775 19.3419 5.07307 19.3419H15.2803C16.4256 19.3419 17.524 18.8869 18.3339 18.0771C19.1437 17.2672 19.5987 16.1688 19.5987 15.0235V6.3866C19.5987 5.24128 19.1437 4.14287 18.3339 3.33301C17.524 2.52315 16.4256 2.06817 15.2803 2.06817V2.06817ZM15.2803 16.9864H5.07307C4.55247 16.9864 4.05319 16.7796 3.68507 16.4115C3.31695 16.0433 3.11015 15.5441 3.11015 15.0235V8.34952H17.2432V15.0235C17.2432 15.5441 17.0364 16.0433 16.6683 16.4115C16.3001 16.7796 15.8009 16.9864 15.2803 16.9864Z" fill="white"/>
</g>
<defs>
<clipPath id="clip0_1_20">
<rect width="18.8441" height="18.8441" fill="white" transform="translate(0.754639 0.497833)"/>
</clipPath>
</defs>
</svg>
