<svg width="19" height="20" viewBox="0 0 19 20" fill="none" xmlns="http://www.w3.org/2000/svg">
<g clip-path="url(#clip0_2_24)">
<path d="M14.6728 0.48909H4.46565C3.32077 0.490544 2.22321 0.945987 1.41366 1.75554C0.604114 2.56508 0.148671 3.66265 0.147217 4.80752L0.147217 11.874C0.148671 13.0189 0.604114 14.1165 1.41366 14.926C2.22321 15.7356 3.32077 16.191 4.46565 16.1925H5.59472L8.81391 18.884C9.02577 19.0611 9.29312 19.1581 9.56925 19.1581C9.84537 19.1581 10.1127 19.0611 10.3246 18.884L13.5438 16.1925H14.6728C15.8177 16.191 16.9153 15.7356 17.7248 14.926C18.5344 14.1165 18.9898 13.0189 18.9913 11.874V4.80752C18.9898 3.66265 18.5344 2.56508 17.7248 1.75554C16.9153 0.945987 15.8177 0.490544 14.6728 0.48909V0.48909ZM16.6358 11.874C16.6358 12.3946 16.429 12.8939 16.0608 13.262C15.6927 13.6302 15.1934 13.837 14.6728 13.837H13.1159C12.8396 13.8372 12.5723 13.9344 12.3605 14.1118L9.56925 16.4453L6.77797 14.1118C6.56621 13.9344 6.29885 13.8372 6.02264 13.837H4.46565C3.94505 13.837 3.44577 13.6302 3.07765 13.262C2.70953 12.8939 2.50272 12.3946 2.50272 11.874V4.80752C2.50272 4.28692 2.70953 3.78764 3.07765 3.41952C3.44577 3.0514 3.94505 2.8446 4.46565 2.8446H14.6728C15.1934 2.8446 15.6927 3.0514 16.0608 3.41952C16.429 3.78764 16.6358 4.28692 16.6358 4.80752V11.874Z" fill="#5A45AA"/>
<path d="M6.036 7.55561H8.39151C8.70387 7.55561 9.00343 7.43153 9.2243 7.21066C9.44518 6.98978 9.56926 6.69022 9.56926 6.37786C9.56926 6.0655 9.44518 5.76593 9.2243 5.54506C9.00343 5.32419 8.70387 5.2001 8.39151 5.2001H6.036C5.72364 5.2001 5.42407 5.32419 5.2032 5.54506C4.98233 5.76593 4.85825 6.0655 4.85825 6.37786C4.85825 6.69022 4.98233 6.98978 5.2032 7.21066C5.42407 7.43153 5.72364 7.55561 6.036 7.55561V7.55561Z" fill="#5A45AA"/>
<path d="M13.1025 9.12608H6.036C5.72364 9.12608 5.42407 9.25016 5.2032 9.47103C4.98233 9.6919 4.85825 9.99147 4.85825 10.3038C4.85825 10.6162 4.98233 10.9158 5.2032 11.1366C5.42407 11.3575 5.72364 11.4816 6.036 11.4816H13.1025C13.4149 11.4816 13.7144 11.3575 13.9353 11.1366C14.1562 10.9158 14.2803 10.6162 14.2803 10.3038C14.2803 9.99147 14.1562 9.6919 13.9353 9.47103C13.7144 9.25016 13.4149 9.12608 13.1025 9.12608Z" fill="#5A45AA"/>
</g>
<defs>
<clipPath id="clip0_2_24">
<rect width="18.8441" height="18.8441" fill="white" transform="translate(0.147217 0.48909)"/>
</clipPath>
</defs>
</svg>
