<svg width="20" height="20" viewBox="0 0 20 20" fill="none" xmlns="http://www.w3.org/2000/svg">
<g clip-path="url(#clip0_2_32)">
<path d="M15.2803 19.2503H5.07307C3.92813 19.249 2.83045 18.7936 2.02085 17.9841C1.21126 17.1745 0.755886 16.0768 0.754639 14.9318L0.754639 4.72465C0.755886 3.57971 1.21126 2.48202 2.02085 1.67243C2.83045 0.862839 3.92813 0.407463 5.07307 0.406216L15.2803 0.406216C16.4252 0.407463 17.5229 0.862839 18.3325 1.67243C19.1421 2.48202 19.5974 3.57971 19.5987 4.72465V14.9318C19.5974 16.0768 19.1421 17.1745 18.3325 17.9841C17.5229 18.7936 16.4252 19.249 15.2803 19.2503ZM5.07307 2.76172C4.55247 2.76172 4.05319 2.96853 3.68507 3.33665C3.31695 3.70477 3.11015 4.20405 3.11015 4.72465V14.9318C3.11015 15.4524 3.31695 15.9517 3.68507 16.3198C4.05319 16.688 4.55247 16.8948 5.07307 16.8948H15.2803C15.8009 16.8948 16.3001 16.688 16.6683 16.3198C17.0364 15.9517 17.2432 15.4524 17.2432 14.9318V4.72465C17.2432 4.20405 17.0364 3.70477 16.6683 3.33665C16.3001 2.96853 15.8009 2.76172 15.2803 2.76172H5.07307ZM7.02971 7.73891V11.9176C7.02971 12.1014 7.078 12.2821 7.16974 12.4414C7.26148 12.6007 7.39345 12.7331 7.55245 12.8254C7.71145 12.9177 7.89191 12.9667 8.07575 12.9673C8.2596 12.968 8.4404 12.9203 8.60005 12.8292L12.7826 10.7398C12.9434 10.648 13.077 10.5154 13.1699 10.3553C13.2629 10.1952 13.3118 10.0134 13.3118 9.82824C13.3118 9.64314 13.2629 9.46132 13.1699 9.30123C13.077 9.14114 12.9434 9.00846 12.7826 8.91666L8.60005 6.82733C8.4404 6.73616 8.2596 6.68852 8.07575 6.68917C7.89191 6.68983 7.71145 6.73875 7.55245 6.83105C7.39345 6.92335 7.26148 7.05579 7.16974 7.21511C7.078 7.37444 7.02971 7.55506 7.02971 7.73891V7.73891Z" fill="white"/>
</g>
<defs>
<clipPath id="clip0_2_32">
<rect width="18.8441" height="18.8441" fill="white" transform="translate(0.754639 0.406216)"/>
</clipPath>
</defs>
</svg>
