<svg width="20" height="20" viewBox="0 0 20 20" fill="none" xmlns="http://www.w3.org/2000/svg">
<g clip-path="url(#clip0_1_14)">
<path d="M18.7937 7.3708L13.23 1.8071C11.5423 0.123767 8.81062 0.123767 7.12294 1.8071L1.55924 7.3708C1.04221 7.88507 0.752411 8.58481 0.754436 9.31409V17.4625C0.756165 18.5262 1.61843 19.3877 2.68205 19.3886H17.6709C18.7345 19.3877 19.5967 18.5262 19.5985 17.4625V9.31409C19.6005 8.58481 19.3107 7.88507 18.7937 7.3708ZM17.243 17.0331H13.3171V14.5347C13.3171 12.879 11.975 11.5369 10.3194 11.5369H10.0336C8.37795 11.5369 7.03579 12.879 7.03579 14.5347V17.0331H3.10994V9.31409C3.1102 9.20997 3.15134 9.11016 3.22458 9.03614L8.78828 3.47244C9.55474 2.70577 10.7976 2.70562 11.5643 3.47208C11.5644 3.47219 11.5645 3.47233 11.5646 3.47244L17.1283 9.03614C17.2015 9.11016 17.2427 9.20997 17.243 9.31409V17.0331H17.243Z" fill="white"/>
</g>
<defs>
<clipPath id="clip0_1_14">
<rect width="18.8441" height="18.8441" fill="white" transform="translate(0.754639 0.543625)"/>
</clipPath>
</defs>
</svg>
