<svg width="20" height="19" viewBox="0 0 20 19" fill="none" xmlns="http://www.w3.org/2000/svg">
<g clip-path="url(#clip0_4_81)">
<path d="M19.2103 17.5354L14.5236 12.8487C15.8008 11.2867 16.4287 9.29355 16.2776 7.28153C16.1264 5.26951 15.2077 3.39257 13.7114 2.03893C12.2152 0.685286 10.2559 -0.0414806 8.23885 0.00895223C6.22179 0.0593851 4.30128 0.883159 2.87456 2.30988C1.44783 3.7366 0.624059 5.65712 0.573627 7.67418C0.523194 9.69124 1.24996 11.6505 2.6036 13.1468C3.95724 14.643 5.83419 15.5617 7.84621 15.7129C9.85823 15.8641 11.8514 15.2361 13.4134 13.959L18.1001 18.6456C18.2482 18.7887 18.4465 18.8678 18.6524 18.866C18.8582 18.8642 19.0552 18.7816 19.2007 18.6361C19.3463 18.4905 19.4289 18.2936 19.4307 18.0877C19.4325 17.8818 19.3533 17.6835 19.2103 17.5354ZM8.44799 14.1647C7.20566 14.1647 5.99122 13.7963 4.95826 13.1061C3.92529 12.4159 3.1202 11.4349 2.64478 10.2871C2.16936 9.13932 2.04496 7.87635 2.28733 6.65788C2.5297 5.43942 3.12794 4.32019 4.0064 3.44173C4.88487 2.56327 6.0041 1.96502 7.22256 1.72266C8.44102 1.48029 9.70399 1.60468 10.8518 2.0801C11.9995 2.55552 12.9805 3.36062 13.6707 4.39358C14.3609 5.42655 14.7293 6.64098 14.7293 7.88332C14.7275 9.54866 14.0651 11.1453 12.8875 12.3228C11.7099 13.5004 10.1133 14.1628 8.44799 14.1647Z" fill="#5A45AA" fill-opacity="0.31"/>
</g>
<defs>
<clipPath id="clip0_4_81">
<rect width="18.8441" height="18.8441" fill="white" transform="translate(0.596466 0.0310745)"/>
</clipPath>
</defs>
</svg>
