<svg width="15" height="14" viewBox="0 0 15 14" fill="none" xmlns="http://www.w3.org/2000/svg">
<g clip-path="url(#clip0_5_307)">
<path d="M7.45473 13.8326C6.13475 13.8326 4.84441 13.4412 3.74689 12.7079C2.64937 11.9745 1.79395 10.9322 1.28882 9.71269C0.783684 8.49318 0.651518 7.15128 0.909033 5.85666C1.16655 4.56204 1.80218 3.37286 2.73555 2.4395C3.66891 1.50613 4.85809 0.870497 6.15271 0.612982C7.44733 0.355467 8.78923 0.487633 10.0087 0.992767C11.2282 1.4979 12.2706 2.35332 13.0039 3.45084C13.7372 4.54836 14.1287 5.8387 14.1287 7.15868C14.1268 8.92813 13.423 10.6246 12.1718 11.8758C10.9206 13.1269 9.22418 13.8307 7.45473 13.8326V13.8326ZM7.45473 1.59707C6.35475 1.59707 5.27947 1.92325 4.36486 2.53437C3.45026 3.14549 2.73742 4.01409 2.31647 5.03034C1.89553 6.0466 1.78539 7.16485 1.99998 8.2437C2.21458 9.32255 2.74427 10.3135 3.52208 11.0913C4.29988 11.8691 5.29087 12.3988 6.36972 12.6134C7.44856 12.828 8.56682 12.7179 9.58307 12.2969C10.5993 11.876 11.4679 11.1632 12.079 10.2485C12.6902 9.33395 13.0163 8.25866 13.0163 7.15868C13.0147 5.68415 12.4283 4.27047 11.3856 3.22781C10.3429 2.18516 8.92927 1.59869 7.45473 1.59707V1.59707ZM5.23009 8.271C5.14329 8.27062 5.05761 8.29055 4.9799 8.32921C4.90218 8.36786 4.8346 8.42417 4.78254 8.49363C4.73049 8.56309 4.69542 8.64376 4.68013 8.7292C4.66484 8.81464 4.66977 8.90247 4.6945 8.98567C4.89377 9.56825 5.26421 10.0771 5.75738 10.4458C6.25054 10.8144 6.84347 11.0256 7.45863 11.0518C8.07404 11.0275 8.66759 10.817 9.16076 10.4481C9.65392 10.0791 10.0235 9.56919 10.2205 8.98567C10.2428 8.90259 10.2459 8.81554 10.2296 8.73109C10.2133 8.64664 10.178 8.56699 10.1264 8.49816C10.0749 8.42934 10.0083 8.37312 9.93183 8.33377C9.85535 8.29442 9.77093 8.27296 9.68494 8.271H5.23009ZM4.11776 6.04636C4.11776 6.60252 4.61553 6.60252 5.23009 6.60252C5.84465 6.60252 6.34241 6.60252 6.34241 6.04636C6.34241 5.75135 6.22522 5.46843 6.01662 5.25983C5.80802 5.05123 5.52509 4.93404 5.23009 4.93404C4.93508 4.93404 4.65216 5.05123 4.44356 5.25983C4.23495 5.46843 4.11776 5.75135 4.11776 6.04636V6.04636ZM8.56706 6.04636C8.56706 6.60252 9.06482 6.60252 9.67938 6.60252C10.2939 6.60252 10.7917 6.60252 10.7917 6.04636C10.7917 5.75135 10.6745 5.46843 10.4659 5.25983C10.2573 5.05123 9.97438 4.93404 9.67938 4.93404C9.38437 4.93404 9.10145 5.05123 8.89285 5.25983C8.68425 5.46843 8.56706 5.75135 8.56706 6.04636Z" fill="#5A45AA" fill-opacity="0.5"/>
</g>
<defs>
<clipPath id="clip0_5_307">
<rect width="13.3479" height="13.3479" fill="white" transform="translate(0.780792 0.484741)"/>
</clipPath>
</defs>
</svg>
