<svg width="17" height="16" viewBox="0 0 17 16" fill="none" xmlns="http://www.w3.org/2000/svg">
<g clip-path="url(#clip0_13_502)">
<path d="M8.40895 2.64721C9.13168 2.64721 9.71757 2.06133 9.71757 1.3386C9.71757 0.61587 9.13168 0.0299835 8.40895 0.0299835C7.68623 0.0299835 7.10034 0.61587 7.10034 1.3386C7.10034 2.06133 7.68623 2.64721 8.40895 2.64721Z" fill="black" fill-opacity="0.4"/>
<path d="M8.40895 9.19049C9.13168 9.19049 9.71757 8.6046 9.71757 7.88188C9.71757 7.15915 9.13168 6.57327 8.40895 6.57327C7.68623 6.57327 7.10034 7.15915 7.10034 7.88188C7.10034 8.6046 7.68623 9.19049 8.40895 9.19049Z" fill="black" fill-opacity="0.4"/>
<path d="M8.40895 15.7332C9.13168 15.7332 9.71757 15.1473 9.71757 14.4246C9.71757 13.7018 9.13168 13.116 8.40895 13.116C7.68623 13.116 7.10034 13.7018 7.10034 14.4246C7.10034 15.1473 7.68623 15.7332 8.40895 15.7332Z" fill="black" fill-opacity="0.4"/>
</g>
<defs>
<clipPath id="clip0_13_502">
<rect width="15.7034" height="15.7034" fill="white" transform="translate(0.557251 0.0299911)"/>
</clipPath>
</defs>
</svg>
