<svg width="9" height="9" viewBox="0 0 9 9" fill="none" xmlns="http://www.w3.org/2000/svg">
<g clip-path="url(#clip0_4_287)">
<path d="M4.25846 0.988525C3.482 0.988525 2.72298 1.21877 2.07738 1.65015C1.43177 2.08153 0.928588 2.69466 0.63145 3.41201C0.334312 4.12937 0.256567 4.91873 0.408047 5.68027C0.559526 6.4418 0.933427 7.14132 1.48247 7.69036C2.03151 8.2394 2.73102 8.6133 3.49256 8.76478C4.2541 8.91626 5.04346 8.83852 5.76081 8.54138C6.47817 8.24424 7.0913 7.74106 7.52268 7.09545C7.95406 6.44985 8.1843 5.69083 8.1843 4.91437C8.18318 3.87352 7.7692 2.87562 7.03321 2.13962C6.29721 1.40363 5.29931 0.989651 4.25846 0.988525V0.988525ZM4.25846 8.18591C3.61141 8.18591 2.97889 7.99404 2.44089 7.63456C1.90289 7.27507 1.48357 6.76413 1.23595 6.16633C0.988336 5.56854 0.923549 4.91074 1.04978 4.27613C1.17602 3.64151 1.4876 3.05858 1.94513 2.60104C2.40266 2.14351 2.9856 1.83193 3.62021 1.70569C4.25483 1.57946 4.91263 1.64425 5.51042 1.89186C6.10822 2.13948 6.61916 2.5588 6.97864 3.0968C7.33812 3.6348 7.53 4.26732 7.53 4.91437C7.52904 5.78174 7.18406 6.61332 6.57073 7.22665C5.95741 7.83997 5.12583 8.18496 4.25846 8.18591V8.18591Z" fill="white"/>
<path d="M5.41532 3.75759C5.47703 3.81718 5.55967 3.85016 5.64544 3.84941C5.73122 3.84867 5.81328 3.81426 5.87393 3.75361C5.93459 3.69295 5.969 3.61089 5.96974 3.52512C5.97049 3.43934 5.93751 3.3567 5.87792 3.295C5.55764 2.97475 5.14958 2.75666 4.70536 2.66832C4.26113 2.57997 3.80069 2.62534 3.38225 2.79867C2.9638 2.97201 2.60616 3.26554 2.35453 3.64213C2.1029 4.01873 1.9686 4.46148 1.9686 4.91441C1.9686 5.36733 2.1029 5.81008 2.35453 6.18668C2.60616 6.56328 2.9638 6.8568 3.38225 7.03014C3.80069 7.20348 4.26113 7.24884 4.70536 7.1605C5.14958 7.07215 5.55764 6.85407 5.87792 6.53382C5.93751 6.47212 5.97049 6.38948 5.96974 6.3037C5.969 6.21792 5.93459 6.13586 5.87393 6.07521C5.81328 6.01455 5.73122 5.98014 5.64544 5.9794C5.55967 5.97865 5.47703 6.01163 5.41532 6.07122C5.18654 6.29995 4.89507 6.45569 4.57778 6.51878C4.26048 6.58186 3.9316 6.54944 3.63273 6.42562C3.33386 6.3018 3.07841 6.09214 2.89869 5.82315C2.71897 5.55415 2.62304 5.23791 2.62304 4.91441C2.62304 4.5909 2.71897 4.27466 2.89869 4.00567C3.07841 3.73668 3.33386 3.52701 3.63273 3.40319C3.9316 3.27937 4.26048 3.24696 4.57778 3.31004C4.89507 3.37312 5.18654 3.52887 5.41532 3.75759V3.75759Z" fill="white"/>
</g>
<defs>
<clipPath id="clip0_4_287">
<rect width="7.85169" height="7.85169" fill="white" transform="translate(0.332611 0.988525)"/>
</clipPath>
</defs>
</svg>
