<svg width="20" height="20" viewBox="0 0 20 20" fill="none" xmlns="http://www.w3.org/2000/svg">
<g clip-path="url(#clip0_4_295)">
<path d="M19.375 18.3827L14.6883 13.6961C15.9655 12.134 16.5934 10.1409 16.4423 8.12888C16.2911 6.11686 15.3724 4.23991 13.8761 2.88627C12.3799 1.53263 10.4206 0.805863 8.40355 0.856296C6.38649 0.906729 4.46597 1.7305 3.03925 3.15723C1.61253 4.58395 0.788755 6.50446 0.738322 8.52152C0.68789 10.5386 1.41466 12.4979 2.7683 13.9941C4.12194 15.4903 5.99888 16.4091 8.0109 16.5602C10.0229 16.7114 12.0161 16.0835 13.5781 14.8063L18.2648 19.493C18.4129 19.636 18.6112 19.7151 18.8171 19.7134C19.0229 19.7116 19.2199 19.629 19.3654 19.4834C19.511 19.3378 19.5936 19.1409 19.5954 18.935C19.5972 18.7292 19.518 18.5308 19.375 18.3827ZM8.61269 15.012C7.37035 15.012 6.15592 14.6436 5.12295 13.9534C4.08999 13.2632 3.28489 12.2822 2.80947 11.1344C2.33405 9.98666 2.20966 8.72369 2.45203 7.50523C2.69439 6.28676 3.29264 5.16753 4.1711 4.28907C5.04956 3.41061 6.16879 2.81237 7.38725 2.57C8.60572 2.32763 9.86869 2.45202 11.0165 2.92745C12.1642 3.40287 13.1452 4.20796 13.8354 5.24093C14.5256 6.27389 14.894 7.48832 14.894 8.73066C14.8922 10.396 14.2298 11.9926 13.0522 13.1702C11.8746 14.3478 10.278 15.0101 8.61269 15.012Z" fill="#5A45AA" fill-opacity="0.31"/>
</g>
<defs>
<clipPath id="clip0_4_295">
<rect width="18.8441" height="18.8441" fill="white" transform="translate(0.761169 0.878403)"/>
</clipPath>
</defs>
</svg>
