<svg width="13" height="13" viewBox="0 0 13 13" fill="none" xmlns="http://www.w3.org/2000/svg">
<g clip-path="url(#clip0_8_340)">
<path d="M6.38716 2.47385C6.96534 2.47385 7.43405 2.00514 7.43405 1.42696C7.43405 0.848775 6.96534 0.380066 6.38716 0.380066C5.80898 0.380066 5.34027 0.848775 5.34027 1.42696C5.34027 2.00514 5.80898 2.47385 6.38716 2.47385Z" fill="#5A45AA"/>
<path d="M6.38716 7.70847C6.96534 7.70847 7.43405 7.23976 7.43405 6.66158C7.43405 6.08339 6.96534 5.61469 6.38716 5.61469C5.80898 5.61469 5.34027 6.08339 5.34027 6.66158C5.34027 7.23976 5.80898 7.70847 6.38716 7.70847Z" fill="#5A45AA"/>
<path d="M6.38716 12.9426C6.96534 12.9426 7.43405 12.4739 7.43405 11.8957C7.43405 11.3176 6.96534 10.8488 6.38716 10.8488C5.80898 10.8488 5.34027 11.3176 5.34027 11.8957C5.34027 12.4739 5.80898 12.9426 6.38716 12.9426Z" fill="#5A45AA"/>
</g>
<defs>
<clipPath id="clip0_8_340">
<rect width="12.5627" height="12.5627" fill="white" transform="translate(0.105774 0.380066)"/>
</clipPath>
</defs>
</svg>
