<svg width="14" height="13" viewBox="0 0 14 13" fill="none" xmlns="http://www.w3.org/2000/svg">
<g clip-path="url(#clip0_8_336)">
<path d="M12.4864 5.06785C12.1328 4.88869 11.7082 4.92603 11.3913 5.16416L10.4318 5.87658C10.2958 4.54002 9.17115 3.52276 7.8277 3.52107H7.78322L5.62557 1.36394C5.33195 1.06825 4.93207 0.902531 4.51535 0.903831H1.02289C0.733799 0.903831 0.499451 1.1382 0.499451 1.42729C0.499451 1.71638 0.733799 1.95073 1.02289 1.95073H4.51532C4.65407 1.9511 4.78706 2.00621 4.88541 2.10411L6.30237 3.52107H3.11669C1.67195 3.52281 0.501193 4.69357 0.499451 6.13831V10.3259C0.501193 11.7706 1.67195 12.9414 3.11669 12.9431H7.8277C9.17118 12.9414 10.2958 11.9241 10.4318 10.5876L11.3897 11.3016C11.8523 11.6485 12.5085 11.5547 12.8554 11.0922C12.9913 10.911 13.0648 10.6906 13.0648 10.4641V6.00378C13.0661 5.60704 12.8418 5.24407 12.4864 5.06785ZM9.39804 10.3259C9.39804 11.1931 8.69497 11.8962 7.8277 11.8962H3.11669C2.24942 11.8962 1.54635 11.1931 1.54635 10.3259V6.13831C1.54635 5.27104 2.24942 4.56797 3.11669 4.56797H7.8277C8.69497 4.56797 9.39804 5.27104 9.39804 6.13831V10.3259ZM12.0153 10.4604L10.4449 9.28998V7.17422L12.0153 6.0038V10.4604Z" fill="#1CA67C"/>
</g>
<defs>
<clipPath id="clip0_8_336">
<rect width="12.5627" height="12.5627" fill="white" transform="translate(0.499451 0.380066)"/>
</clipPath>
</defs>
</svg>
