<svg width="14" height="14" viewBox="0 0 14 14" fill="none" xmlns="http://www.w3.org/2000/svg">
<g clip-path="url(#clip0_5_311)">
<path d="M7.96181 10.0879L6.14761 11.9021C5.62088 12.4148 4.91349 12.6994 4.17849 12.6945C3.44349 12.6896 2.73998 12.3955 2.22017 11.8758C1.70036 11.3561 1.40605 10.6527 1.40092 9.91772C1.39578 9.18273 1.68024 8.47526 2.19274 7.94839L4.00694 6.13252C4.11123 6.02816 4.16978 5.88665 4.16973 5.73912C4.16968 5.59159 4.11102 5.45012 4.00666 5.34583C3.9023 5.24155 3.76079 5.18299 3.61326 5.18304C3.46573 5.1831 3.32426 5.24175 3.21997 5.34611L1.40633 7.16198C0.673461 7.89521 0.261885 8.88955 0.262146 9.92624C0.262407 10.9629 0.674482 11.9571 1.40772 12.6899C2.14096 13.4228 3.1353 13.8344 4.17199 13.8341C5.20869 13.8339 6.20282 13.4218 6.93569 12.6885L8.74989 10.8743C8.8512 10.7695 8.90725 10.629 8.90599 10.4831C8.90472 10.3373 8.84623 10.1978 8.74311 10.0947C8.63999 9.99159 8.5005 9.9331 8.35468 9.93184C8.20885 9.93057 8.06837 9.98663 7.96347 10.0879H7.96181Z" fill="#5A45AA" fill-opacity="0.5"/>
<path d="M12.4662 1.63125C12.1043 1.26686 11.6737 0.977913 11.1993 0.781153C10.7249 0.584393 10.2162 0.48373 9.70262 0.484999V0.484999C9.18932 0.483635 8.68084 0.584039 8.20659 0.780405C7.73233 0.976771 7.30171 1.2652 6.93961 1.62902L5.12263 3.44378C5.01827 3.54806 4.95962 3.68953 4.95956 3.83707C4.95951 3.9846 5.01807 4.12611 5.12235 4.23047C5.22664 4.33483 5.36811 4.39348 5.51564 4.39354C5.66317 4.39359 5.80469 4.33503 5.90904 4.23075L7.72491 2.41655C7.98383 2.15607 8.29185 1.94954 8.63114 1.80892C8.97043 1.6683 9.33424 1.59638 9.70151 1.59732V1.59732C10.2545 1.59751 10.795 1.76163 11.2547 2.06895C11.7144 2.37626 12.0727 2.81298 12.2842 3.32388C12.4958 3.83478 12.5511 4.39694 12.4432 4.93928C12.3353 5.48163 12.0691 5.97981 11.6781 6.37086L9.86391 8.18505C9.75955 8.28941 9.70092 8.43095 9.70092 8.57854C9.70092 8.72612 9.75955 8.86766 9.86391 8.97202C9.96827 9.07638 10.1098 9.13501 10.2574 9.13501C10.405 9.13501 10.5465 9.07638 10.6509 8.97202L12.4651 7.15894C13.197 6.42541 13.6082 5.43156 13.6084 4.39532C13.6086 3.35909 13.1978 2.36507 12.4662 1.63125V1.63125Z" fill="#5A45AA" fill-opacity="0.5"/>
<path d="M8.21104 5.09704L4.87407 8.434C4.82096 8.48531 4.77859 8.54667 4.74944 8.61453C4.72029 8.68238 4.70495 8.75536 4.70431 8.82921C4.70366 8.90305 4.71774 8.97629 4.7457 9.04464C4.77366 9.11299 4.81496 9.17509 4.86718 9.22731C4.9194 9.27952 4.9815 9.32082 5.04985 9.34879C5.1182 9.37675 5.19143 9.39082 5.26528 9.39018C5.33913 9.38954 5.4121 9.3742 5.47996 9.34505C5.54781 9.3159 5.60918 9.27353 5.66049 9.22041L8.99746 5.88345C9.09876 5.77856 9.15482 5.63807 9.15356 5.49225C9.15229 5.34642 9.0938 5.20693 8.99068 5.10381C8.88756 5.0007 8.74807 4.94221 8.60225 4.94094C8.45642 4.93967 8.31594 4.99573 8.21104 5.09704Z" fill="#5A45AA" fill-opacity="0.5"/>
</g>
<defs>
<clipPath id="clip0_5_311">
<rect width="13.3479" height="13.3479" fill="white" transform="translate(0.261719 0.484741)"/>
</clipPath>
</defs>
</svg>
