<svg width="17" height="16" viewBox="0 0 17 16" fill="none" xmlns="http://www.w3.org/2000/svg">
<g clip-path="url(#clip0_13_550)">
<path d="M8.40895 2.75847C9.13168 2.75847 9.71757 2.17258 9.71757 1.44985C9.71757 0.727122 9.13168 0.141235 8.40895 0.141235C7.68623 0.141235 7.10034 0.727122 7.10034 1.44985C7.10034 2.17258 7.68623 2.75847 8.40895 2.75847Z" fill="black" fill-opacity="0.4"/>
<path d="M8.40895 9.30173C9.13168 9.30173 9.71757 8.71585 9.71757 7.99312C9.71757 7.2704 9.13168 6.68451 8.40895 6.68451C7.68623 6.68451 7.10034 7.2704 7.10034 7.99312C7.10034 8.71585 7.68623 9.30173 8.40895 9.30173Z" fill="black" fill-opacity="0.4"/>
<path d="M8.40895 15.8444C9.13168 15.8444 9.71757 15.2585 9.71757 14.5358C9.71757 13.8131 9.13168 13.2272 8.40895 13.2272C7.68623 13.2272 7.10034 13.8131 7.10034 14.5358C7.10034 15.2585 7.68623 15.8444 8.40895 15.8444Z" fill="black" fill-opacity="0.4"/>
</g>
<defs>
<clipPath id="clip0_13_550">
<rect width="15.7034" height="15.7034" fill="white" transform="translate(0.557251 0.141235)"/>
</clipPath>
</defs>
</svg>
