<svg width="17" height="17" viewBox="0 0 17 17" fill="none" xmlns="http://www.w3.org/2000/svg">
<g clip-path="url(#clip0_13_452)">
<path d="M7.57808 2.49115L7.5735 12.5923C7.5735 12.7659 7.64244 12.9323 7.76514 13.055C7.88785 13.1777 8.05428 13.2467 8.22781 13.2467C8.40134 13.2467 8.56777 13.1777 8.69047 13.055C8.81318 12.9323 8.88212 12.7659 8.88212 12.5923L8.8867 2.50227L10.792 4.40827C10.9147 4.53093 11.0811 4.59984 11.2546 4.59984C11.4281 4.59984 11.5945 4.53093 11.7172 4.40827V4.40827C11.8399 4.28557 11.9088 4.11917 11.9088 3.94567C11.9088 3.77217 11.8399 3.60578 11.7172 3.48308L9.61625 1.37948C9.43396 1.19707 9.21751 1.05237 8.97928 0.953647C8.74104 0.854922 8.48569 0.804108 8.22781 0.804108C7.96993 0.804108 7.71457 0.854922 7.47634 0.953647C7.2381 1.05237 7.02166 1.19707 6.83937 1.37948L4.73839 3.48112C4.61572 3.60382 4.54681 3.77021 4.54681 3.94371C4.54681 4.11721 4.61572 4.28361 4.73839 4.40631V4.40631C4.86109 4.52897 5.02748 4.59788 5.20098 4.59788C5.37448 4.59788 5.54088 4.52897 5.66358 4.40631L7.57808 2.49115Z" fill="white"/>
<path d="M14.771 11.9271V14.5443C14.771 14.7178 14.7021 14.8843 14.5793 15.007C14.4566 15.1297 14.2902 15.1986 14.1167 15.1986H2.33914C2.16561 15.1986 1.99918 15.1297 1.87648 15.007C1.75377 14.8843 1.68484 14.7178 1.68484 14.5443V11.9271C1.68484 11.7536 1.6159 11.5871 1.49319 11.4644C1.37049 11.3417 1.20406 11.2728 1.03053 11.2728V11.2728C0.856995 11.2728 0.690569 11.3417 0.567863 11.4644C0.445156 11.5871 0.376221 11.7536 0.376221 11.9271L0.376221 14.5443C0.376221 15.0649 0.583028 15.5642 0.951147 15.9323C1.31927 16.3004 1.81854 16.5072 2.33914 16.5072H14.1167C14.6373 16.5072 15.1366 16.3004 15.5047 15.9323C15.8728 15.5642 16.0796 15.0649 16.0796 14.5443V11.9271C16.0796 11.7536 16.0107 11.5871 15.888 11.4644C15.7653 11.3417 15.5988 11.2728 15.4253 11.2728C15.2518 11.2728 15.0853 11.3417 14.9626 11.4644C14.8399 11.5871 14.771 11.7536 14.771 11.9271Z" fill="white"/>
</g>
<defs>
<clipPath id="clip0_13_452">
<rect width="15.7034" height="15.7034" fill="white" transform="translate(0.376221 0.80426)"/>
</clipPath>
</defs>
</svg>
