<svg width="14" height="14" viewBox="0 0 14 14" fill="none" xmlns="http://www.w3.org/2000/svg">
<g clip-path="url(#clip0_5_301)">
<path d="M6.97374 11.608C8.15336 11.6066 9.28428 11.1375 10.1184 10.3033C10.9525 9.46922 11.4217 8.3383 11.423 7.15868V4.93403C11.423 3.75401 10.9543 2.62231 10.1199 1.78791C9.28546 0.953505 8.15376 0.484741 6.97374 0.484741C5.79371 0.484741 4.66202 0.953505 3.82761 1.78791C2.99321 2.62231 2.52444 3.75401 2.52444 4.93403V7.15868C2.52577 8.3383 2.99496 9.46922 3.82908 10.3033C4.66319 11.1375 5.79412 11.6066 6.97374 11.608V11.608ZM6.97374 1.59706C7.76157 1.59853 8.52353 1.87841 9.12499 2.38726C9.72644 2.89611 10.1287 3.60117 10.2607 4.37787H8.64222C8.49472 4.37787 8.35326 4.43647 8.24896 4.54077C8.14465 4.64507 8.08606 4.78653 8.08606 4.93403C8.08606 5.08154 8.14465 5.223 8.24896 5.3273C8.35326 5.4316 8.49472 5.49019 8.64222 5.49019H10.3107V6.60252H8.64222C8.49472 6.60252 8.35326 6.66111 8.24896 6.76541C8.14465 6.86971 8.08606 7.01118 8.08606 7.15868C8.08606 7.30618 8.14465 7.44764 8.24896 7.55194C8.35326 7.65624 8.49472 7.71484 8.64222 7.71484H10.2607C10.1299 8.49207 9.72802 9.19784 9.12628 9.70683C8.52453 10.2158 7.76188 10.4951 6.97374 10.4951C6.18559 10.4951 5.42294 10.2158 4.82119 9.70683C4.21945 9.19784 3.81754 8.49207 3.68682 7.71484H5.30525C5.45276 7.71484 5.59422 7.65624 5.69852 7.55194C5.80282 7.44764 5.86141 7.30618 5.86141 7.15868C5.86141 7.01118 5.80282 6.86971 5.69852 6.76541C5.59422 6.66111 5.45276 6.60252 5.30525 6.60252H3.63677V5.49019H5.30525C5.45276 5.49019 5.59422 5.4316 5.69852 5.3273C5.80282 5.223 5.86141 5.08154 5.86141 4.93403C5.86141 4.78653 5.80282 4.64507 5.69852 4.54077C5.59422 4.43647 5.45276 4.37787 5.30525 4.37787H3.68682C3.81878 3.60117 4.22103 2.89611 4.82249 2.38726C5.42395 1.87841 6.18591 1.59853 6.97374 1.59706V1.59706Z" fill="#5A45AA" fill-opacity="0.5"/>
<path d="M13.0916 7.15869C12.9441 7.15869 12.8026 7.21729 12.6983 7.32159C12.594 7.42589 12.5354 7.56735 12.5354 7.71485C12.534 9.04193 12.0061 10.3142 11.0678 11.2526C10.1294 12.191 8.85707 12.7188 7.52999 12.7203H6.41767C5.09064 12.7187 3.81842 12.1908 2.88007 11.2525C1.94172 10.3141 1.41384 9.04188 1.41222 7.71485C1.41222 7.56735 1.35362 7.42589 1.24932 7.32159C1.14502 7.21729 1.00356 7.15869 0.856058 7.15869C0.708554 7.15869 0.567093 7.21729 0.462792 7.32159C0.358492 7.42589 0.299896 7.56735 0.299896 7.71485C0.30181 9.3368 0.946974 10.8918 2.09386 12.0387C3.24076 13.1856 4.79572 13.8307 6.41767 13.8326H7.52999C9.15194 13.8307 10.7069 13.1856 11.8538 12.0387C13.0007 10.8918 13.6459 9.3368 13.6478 7.71485C13.6478 7.56735 13.5892 7.42589 13.4849 7.32159C13.3806 7.21729 13.2391 7.15869 13.0916 7.15869Z" fill="#5A45AA" fill-opacity="0.5"/>
</g>
<defs>
<clipPath id="clip0_5_301">
<rect width="13.3479" height="13.3479" fill="white" transform="translate(0.299896 0.484741)"/>
</clipPath>
</defs>
</svg>
