<svg width="17" height="17" viewBox="0 0 17 17" fill="none" xmlns="http://www.w3.org/2000/svg">
<g clip-path="url(#clip0_13_519)">
<path d="M14.0873 0.342972H2.30972C1.22564 0.342972 0.346802 1.22181 0.346802 2.30589V16.0464H12.3534C13.7967 14.6023 14.6061 13.7929 16.0502 12.3495V2.30589C16.0502 1.22181 15.1713 0.342972 14.0873 0.342972ZM1.65543 2.30589C1.65543 1.94453 1.94836 1.6516 2.30972 1.6516H14.0873C14.4486 1.6516 14.7416 1.94453 14.7416 2.30589V10.8119H10.8157V14.7377H1.65543V2.30589ZM12.1243 14.4243V12.1205H14.4282L12.1243 14.4243Z" fill="#247693"/>
<path d="M11.0184 3.63208H9.74188V3.63732V4.18237L9.74909 7.51085H10.158C10.158 7.51085 10.8019 7.51085 11.0498 7.50431C12.0152 7.43205 12.662 6.66547 12.662 5.57083C12.662 4.41136 12.0019 3.63208 11.0184 3.63208ZM11.0354 6.68507C10.9281 6.68507 10.7462 6.68835 10.5774 6.68964L10.565 4.44994H11.023C11.7899 4.44994 11.8487 5.30774 11.8487 5.57077C11.8441 6.11843 11.5949 6.67525 11.0354 6.68507Z" fill="#247693"/>
<path d="M4.23787 3.61481H2.95087V7.5858H3.76876V6.21176H4.2379C4.95519 6.21176 5.53671 5.63027 5.53671 4.91295C5.53671 4.19562 4.95523 3.61414 4.2379 3.61414V3.61481H4.23787ZM4.23787 5.39451H3.7733V4.43071H4.24112C4.50673 4.43056 4.72216 4.64574 4.72231 4.91135C4.72247 5.17696 4.50728 5.39239 4.24167 5.39254C4.24149 5.39254 4.2413 5.39254 4.24112 5.39254L4.23787 5.39451Z" fill="#247693"/>
<path d="M7.29239 4.4525C7.58891 4.38969 7.89804 4.46158 8.13645 4.64879L8.44791 4.91051L8.97136 4.28498L8.65794 4.02326C8.20757 3.6616 7.61379 3.5318 7.05359 3.67255C6.62935 3.78799 6.31212 4.14132 6.2429 4.57549C6.18567 4.99135 6.3869 5.40025 6.7513 5.60863C6.7513 5.60863 7.19492 5.80492 7.68697 5.98812C7.791 6.02673 8.12666 6.16935 8.08608 6.39444C8.00929 6.61687 7.79036 6.75792 7.5561 6.73599C7.26052 6.73961 6.97651 6.62125 6.77093 6.40883L6.49744 6.10065L5.89221 6.65027L6.16702 6.9532C6.52654 7.33965 7.03224 7.55674 7.56005 7.55125C8.19193 7.57983 8.75382 7.15235 8.89484 6.53578C8.97348 5.92469 8.57451 5.354 7.97358 5.21801C7.54435 5.05901 7.15176 4.88692 7.14066 4.88692C7.07601 4.84404 7.04267 4.76712 7.05561 4.69063C7.07825 4.57024 7.1721 4.47584 7.29239 4.4525Z" fill="#247693"/>
</g>
<defs>
<clipPath id="clip0_13_519">
<rect width="15.7034" height="15.7034" fill="white" transform="translate(0.346802 0.342972)"/>
</clipPath>
</defs>
</svg>
