<svg width="17" height="17" viewBox="0 0 17 17" fill="none" xmlns="http://www.w3.org/2000/svg">
<g clip-path="url(#clip0_13_507)">
<path d="M14.302 0.723557H2.52451C2.00391 0.723557 1.50463 0.930364 1.13651 1.29848C0.768392 1.6666 0.561584 2.16588 0.561584 2.68648L0.561584 16.4269H12.5681C14.0115 14.9829 14.8209 14.1735 16.265 12.7301V2.68648C16.265 2.16588 16.0582 1.6666 15.69 1.29848C15.3219 0.930364 14.8226 0.723557 14.302 0.723557V0.723557ZM1.8702 2.68648C1.8702 2.51295 1.93914 2.34652 2.06184 2.22381C2.18455 2.10111 2.35097 2.03217 2.52451 2.03217H14.302C14.4756 2.03217 14.642 2.10111 14.7647 2.22381C14.8874 2.34652 14.9564 2.51295 14.9564 2.68648V11.1925H11.0305V15.1183H1.8702V2.68648ZM12.3391 14.8049V12.5011H14.6429L12.3391 14.8049Z" fill="#FB200D"/>
<path d="M7.74845 3.99499H6.46143V7.96598H7.27931V6.59193H7.74845C8.09291 6.59193 8.42327 6.45509 8.66684 6.21152C8.91041 5.96795 9.04725 5.6376 9.04725 5.29313C9.04725 4.94867 8.91041 4.61831 8.66684 4.37474C8.42327 4.13117 8.09291 3.99433 7.74845 3.99433V3.99499ZM7.74845 5.7747H7.28389V4.81091H7.75172C7.87927 4.81091 8.00159 4.86157 8.09178 4.95176C8.18197 5.04195 8.23264 5.16428 8.23264 5.29182C8.23264 5.41937 8.18197 5.54169 8.09178 5.63188C8.00159 5.72207 7.87927 5.77274 7.75172 5.77274L7.74845 5.7747Z" fill="#FB200D"/>
<path d="M11.0697 7.11162C10.9234 7.1136 10.7783 7.08559 10.6432 7.02933C10.5082 6.97306 10.3861 6.88973 10.2845 6.78447L10.0097 6.48152L9.40381 7.0318L9.67862 7.33409C9.85655 7.52522 10.0724 7.67713 10.3124 7.78011C10.5523 7.88309 10.8112 7.93486 11.0723 7.93212C11.3784 7.94522 11.6794 7.85049 11.9228 7.66445C12.1663 7.4784 12.3367 7.21283 12.4045 6.91402C12.4421 6.61925 12.3686 6.32103 12.1982 6.07751C12.0279 5.834 11.773 5.66266 11.4832 5.5969C11.052 5.43725 10.6607 5.26517 10.6503 5.26517C10.6186 5.24418 10.5937 5.21447 10.5786 5.17963C10.5635 5.14479 10.5589 5.10631 10.5652 5.06887C10.5767 5.01029 10.6055 4.95649 10.6478 4.91439C10.6901 4.8723 10.7441 4.84383 10.8027 4.83267C10.9492 4.80178 11.1007 4.80335 11.2465 4.83726C11.3923 4.87117 11.5289 4.9366 11.6468 5.02896L11.9576 5.29068L12.481 4.66517L12.1676 4.40344C11.9456 4.22466 11.6852 4.09986 11.4068 4.03889C11.1284 3.97792 10.8396 3.98243 10.5632 4.05208C10.3556 4.10874 10.1687 4.22405 10.0249 4.38419C9.88117 4.54433 9.7866 4.74252 9.75255 4.95502C9.72458 5.1583 9.75804 5.3653 9.84863 5.54941C9.93923 5.73352 10.0828 5.88632 10.261 5.98818C10.261 5.98818 10.7046 6.18447 11.1966 6.36768C11.3006 6.40628 11.6363 6.54892 11.5957 6.77465C11.5577 6.8811 11.4854 6.97192 11.3902 7.03289C11.295 7.09386 11.1823 7.12155 11.0697 7.11162V7.11162Z" fill="#FB200D"/>
<path d="M3.17761 7.93485H5.31262V7.11696H3.9955V6.37302H5.21513V5.55513H3.9955V4.81053H5.31262V3.99265H3.17761V7.93485Z" fill="#FB200D"/>
</g>
<defs>
<clipPath id="clip0_13_507">
<rect width="15.7034" height="15.7034" fill="white" transform="translate(0.561584 0.723557)"/>
</clipPath>
</defs>
</svg>
