<svg width="17" height="16" viewBox="0 0 17 16" fill="none" xmlns="http://www.w3.org/2000/svg">
<g clip-path="url(#clip0_13_537)">
<path d="M5.14184 7.88495H11.6849V9.19357H5.14184V7.88495ZM5.14184 11.8108H9.72199V10.5022H5.14184V11.8108ZM14.9565 4.99684V15.7366H1.8703V1.99619C1.8703 1.47559 2.07711 0.97631 2.44523 0.608191C2.81335 0.240071 3.31262 0.0332642 3.83322 0.0332642L9.99287 0.0332642L14.9565 4.99684ZM10.3763 4.61342H12.7226L10.3763 2.26707V4.61342ZM13.6478 14.428V5.92203H9.06768V1.34188H3.83322C3.65969 1.34188 3.49326 1.41081 3.37056 1.53352C3.24785 1.65623 3.17892 1.82265 3.17892 1.99619V14.428H13.6478Z" fill="#5A45AA"/>
</g>
<defs>
<clipPath id="clip0_13_537">
<rect width="15.7034" height="15.7034" fill="white" transform="translate(0.561584 0.0332642)"/>
</clipPath>
</defs>
</svg>
