<svg width="14" height="13" viewBox="0 0 14 13" fill="none" xmlns="http://www.w3.org/2000/svg">
<g clip-path="url(#clip0_8_332)">
<path d="M8.32619 8.89182C6.80212 8.24651 5.59017 7.03174 4.9484 5.50617L6.72811 3.72332L3.45134 0.443926L1.79149 2.10325C1.5036 2.39279 1.27598 2.73655 1.1218 3.11463C0.967617 3.49271 0.88994 3.89761 0.89326 4.30591C0.89326 8.09985 5.73618 12.9428 9.53012 12.9428C9.93837 12.9463 10.3433 12.8688 10.7213 12.7146C11.0993 12.5604 11.443 12.3326 11.7323 12.0445L13.3921 10.3847L10.1127 7.1053L8.32619 8.89182ZM10.9916 11.3044C10.7994 11.4949 10.5712 11.6454 10.3203 11.7469C10.0694 11.8485 9.80077 11.8991 9.53012 11.8959C6.26748 11.8959 1.94015 7.56855 1.94015 4.30591C1.93707 4.0352 1.98777 3.76657 2.0893 3.51561C2.19084 3.26464 2.34119 3.03634 2.53165 2.84393L3.45134 1.92423L5.25043 3.72332L3.71411 5.25963L3.84235 5.58103C4.21989 6.59092 4.81008 7.50786 5.57295 8.26973C6.33581 9.0316 7.25352 9.6206 8.2639 9.99682L8.58111 10.1177L10.1127 8.58561L11.9118 10.3847L10.9916 11.3044ZM8.2215 1.42696V0.380066C9.6093 0.38159 10.9398 0.933566 11.9211 1.91489C12.9025 2.89621 13.4544 4.22673 13.456 5.61453H12.4091C12.4078 4.5043 11.9662 3.4399 11.1812 2.65485C10.3961 1.86979 9.33173 1.4282 8.2215 1.42696V1.42696ZM8.2215 3.52074V2.47385C9.05421 2.47468 9.85257 2.80584 10.4414 3.39465C11.0302 3.98346 11.3613 4.78182 11.3622 5.61453H10.3153C10.3153 5.05922 10.0947 4.52666 9.70203 4.134C9.30937 3.74134 8.77681 3.52074 8.2215 3.52074Z" fill="#247693"/>
</g>
<defs>
<clipPath id="clip0_8_332">
<rect width="12.5627" height="12.5627" fill="white" transform="translate(0.893127 0.380066)"/>
</clipPath>
</defs>
</svg>
