<svg width="15" height="14" viewBox="0 0 15 14" fill="none" xmlns="http://www.w3.org/2000/svg">
<path d="M1.56095 6.29777C1.56095 6.29777 7.4644 3.36766 9.51181 2.3359C10.2967 1.92323 12.9583 0.602568 12.9583 0.602568C12.9583 0.602568 14.1868 0.0248289 14.0844 1.42797C14.0503 2.00576 13.7773 4.02794 13.5043 6.21524C13.0948 9.31047 12.6512 12.6945 12.6512 12.6945C12.6512 12.6945 12.583 13.6438 12.0029 13.8088C11.4228 13.9739 10.4673 13.2311 10.2967 13.066C10.1601 12.9422 7.73737 11.085 6.85015 10.1771C6.61128 9.92951 6.3383 9.4343 6.88425 8.8565C8.11274 7.4946 9.58005 5.80257 10.4673 4.72957C10.8768 4.2343 11.2862 3.07877 9.58005 4.4819C7.15727 6.50414 4.7686 8.40254 4.7686 8.40254C4.7686 8.40254 4.2226 8.81521 3.1989 8.44377C2.17514 8.0724 0.980807 7.57714 0.980807 7.57714C0.980807 7.57714 0.16188 6.9581 1.56095 6.29777Z" fill="#FF6D60"/>
</svg>
