<svg width="24" height="25" viewBox="0 0 24 25" fill="none" xmlns="http://www.w3.org/2000/svg">
<path fill-rule="evenodd" clip-rule="evenodd" d="M3.76247 0.730103H15.9428C16.8677 0.730103 17.7086 1.10007 18.3187 1.69815C18.9288 2.29622 19.3062 3.1205 19.3062 4.0272V11.3786C19.3062 12.2853 18.9288 13.1096 18.3187 13.7076C17.7086 14.3057 16.8677 14.6757 15.9428 14.6757H9.574L4.46838 18.9792C4.23178 19.1785 3.87393 19.1517 3.67057 18.9178C3.57084 18.8028 3.52587 18.6609 3.53564 18.521L3.80745 14.6738H3.76247C2.83756 14.6738 1.99672 14.3038 1.38663 13.7057C0.776537 13.1096 0.399139 12.2853 0.399139 11.3786V4.0272C0.399139 3.1205 0.776537 2.29622 1.38663 1.69815C1.99477 1.10007 2.8356 0.730103 3.76247 0.730103ZM12.7418 6.36009C13.6178 6.36009 14.3276 7.05593 14.3276 7.91471C14.3276 8.77349 13.6178 9.46933 12.7418 9.46933C11.8658 9.46933 11.1559 8.77349 11.1559 7.91471C11.1559 7.05593 11.8658 6.36009 12.7418 6.36009ZM6.98697 6.36009C7.863 6.36009 8.57282 7.05593 8.57282 7.91471C8.57282 8.77349 7.863 9.46933 6.98697 9.46933C6.11094 9.46933 5.40112 8.77349 5.40112 7.91471C5.40112 7.05593 6.11094 6.36009 6.98697 6.36009ZM21.2811 6.09364C21.9401 6.21824 22.5307 6.53644 22.9882 6.985C23.5846 7.56966 23.9562 8.37668 23.9562 9.26613V16.6175C23.9562 17.507 23.5866 18.314 22.9882 18.8986C22.3918 19.4833 21.5686 19.8475 20.6613 19.8475H20.542L20.8197 23.7657C20.8275 23.8884 20.7903 24.0149 20.7023 24.1146C20.5244 24.3197 20.2096 24.3427 20.0023 24.1682L14.8771 19.721H8.12112L11.4473 16.4047H18.4947C20.0316 16.4047 21.2909 15.1722 21.2909 13.6635V6.31025C21.289 6.2374 21.287 6.16456 21.2811 6.09364ZM15.9409 1.84191H3.76247C3.15043 1.84191 2.59313 2.08728 2.18835 2.48408C1.78358 2.88088 1.53329 3.42529 1.53329 4.0272V11.3786C1.53329 11.9786 1.78358 12.5249 2.18835 12.9217C2.59313 13.3185 3.15043 13.5639 3.76247 13.5639H4.41559V13.5658L4.45274 13.5677C4.76365 13.5888 5.00026 13.8533 4.97875 14.1581L4.75779 17.275L8.96978 13.7249C9.07146 13.6252 9.21225 13.5639 9.36868 13.5639H15.9409C16.5529 13.5639 17.1102 13.3185 17.515 12.9217C17.9198 12.5249 18.1701 11.9786 18.1701 11.3786V4.0272C18.1701 3.4272 17.9198 2.88088 17.515 2.48408C17.1102 2.08728 16.5529 1.84191 15.9409 1.84191Z" fill="white"/>
</svg>
